# xmcd
#
# Track frame offsets:
#	150
#	12973
#	32411
#	49053
#	65680
#	79033
#	96797
#	112039
#	128367
#	147536
#	167090
#	184086
#	199767
#	218724
#	235616
#
# Disc length: 3382 seconds
#
# Revision: 1
# Processed by: cddbd v1.5.1PL0 Copyright (c) Steve Scherf et al.
# Submitted via: audiograbber 1.83.01
#
DISCID=c70d340f
DTITLE=Various Artist - CB60212
DYEAR=1900
DGENRE=Karaoke
TTITLE0=Eric Heatherly - Wrong Five O Clock
TTITLE1=Rascall Flatts - Long Slow Beautiful Dance
TTITLE2=Pam Tillis - Please
TTITLE3=Kenny Chesney - Don't Happen Twice
TTITLE4=Billy Yates - What Do You Want From Me Now
TTITLE5=SheDaisy - Lucky 4 You
TTITLE6=Garth Brooks - Wild Horses
TTITLE7=Tim McGraw - Things Change
TTITLE8=Kasey Chambers - Cry Like A Baby
TTITLE9=Billy Burnette - What A Woman Feels
TTITLE10=Tyler England - I Drove Her To Dallas
TTITLE11=Patty Loveless - The Last Thing On My Mind]
TTITLE12=McAlyster - I Know How The River Feels
TTITLE13=Daryle Singletary - I've Thought Of Everything
TTITLE14=Allison Moorer - Think It Over
EXTD=
EXTT0=
EXTT1=
EXTT2=
EXTT3=
EXTT4=
EXTT5=
EXTT6=
EXTT7=
EXTT8=
EXTT9=
EXTT10=
EXTT11=
EXTT12=
EXTT13=
EXTT14=
PLAYORDER=
